<?xml version="1.0" encoding="utf-8"?>
<!-- Generator: Adobe Illustrator 28.2.0, SVG Export Plug-In . SVG Version: 6.00 Build 0)  -->
<svg version="1.1" id="Camada_1" xmlns="http://www.w3.org/2000/svg" xmlns:xlink="http://www.w3.org/1999/xlink" x="0px" y="0px"
	 viewBox="0 0 1000 1000" style="enable-background:new 0 0 1000 1000;" xml:space="preserve">
<style type="text/css">
	.st0{fill:#202A1C;}
	.st1{fill:#889F84;}
	.st2{fill:#FFFFFF;}
</style>
<g>
	<g>
		<path d="M278.48,331.29c2.18-2.58,3.7-5.28,4.54-8.08c0.84-2.8,0.9-5.52,0.15-8.14c-0.74-2.62-2.31-4.95-4.7-6.97
			c-3.42-2.89-7.1-3.98-11.03-3.26c-3.93,0.72-7.59,3.09-10.98,7.09l-10.81,12.79l34.07,28.79l5.74-6.78l-11.68-9.87L278.48,331.29z
			 M268.24,332.2l-11.1-9.38l4.59-5.43c1.91-2.26,3.82-3.59,5.72-3.97c1.9-0.39,3.78,0.2,5.62,1.76c1.75,1.47,2.6,3.23,2.56,5.28
			c-0.04,2.04-0.97,4.15-2.8,6.31L268.24,332.2z"/>
		<path d="M324.39,277.56c-2.73-3.17-6.02-5.43-9.88-6.77c-3.86-1.34-7.81-1.62-11.86-0.85c-4.05,0.78-7.76,2.61-11.12,5.51
			c-3.37,2.9-5.74,6.3-7.11,10.22c-1.38,3.92-1.69,7.88-0.94,11.9c0.75,4.02,2.5,7.63,5.26,10.83c2.79,3.24,6.1,5.54,9.94,6.89
			c3.84,1.35,7.8,1.64,11.86,0.85s7.78-2.63,11.15-5.53c3.3-2.84,5.65-6.21,7.04-10.11c1.39-3.9,1.71-7.89,0.97-11.96
			C328.94,284.45,327.18,280.8,324.39,277.56z M320.82,298.08c-0.79,2.49-2.22,4.63-4.31,6.42c-2.12,1.82-4.46,2.94-7.02,3.36
			c-2.57,0.42-5.08,0.14-7.54-0.84c-2.46-0.98-4.6-2.53-6.42-4.65c-1.79-2.09-2.97-4.4-3.55-6.95c-0.57-2.55-0.47-5.05,0.32-7.51
			c0.78-2.46,2.24-4.6,4.35-6.42c2.12-1.82,4.47-2.93,7.07-3.31c2.59-0.39,5.11-0.1,7.56,0.86c2.45,0.96,4.57,2.49,6.36,4.57
			c1.77,2.05,2.93,4.35,3.51,6.9C321.71,293.07,321.61,295.58,320.82,298.08z"/>
		<path d="M353.19,233.99l-7.62,4.57l13.27,22.15c2,3.34,2.73,6.29,2.2,8.85s-2.22,4.69-5.05,6.39c-2.9,1.74-5.63,2.19-8.18,1.35
			c-2.55-0.84-4.81-2.91-6.79-6.21l-13.14-21.94l-7.62,4.56l13.27,22.16c3.26,5.44,7.18,8.76,11.77,9.96
			c4.59,1.2,9.51,0.22,14.78-2.93c5.26-3.15,8.46-7.04,9.58-11.66c1.13-4.62,0.03-9.71-3.3-15.26L353.19,233.99z"/>
		<path d="M401.78,240.66c-2.04-1.21-4.17-1.92-6.38-2.12c-2.21-0.2-4.95-0.25-8.2-0.13c-2.26,0.07-4.02,0.06-5.26-0.01
			c-1.25-0.08-2.37-0.32-3.36-0.73c-0.99-0.41-1.7-1.1-2.1-2.08c-0.52-1.25-0.36-2.49,0.47-3.74c0.83-1.24,2.27-2.28,4.3-3.13
			c2.19-0.91,4.66-1.34,7.43-1.3c2.77,0.04,5.44,0.63,8.01,1.76l-3.41-8.2c-4.73-1.47-9.81-1.08-15.24,1.18
			c-2.58,1.07-4.77,2.5-6.57,4.28c-1.8,1.78-3.01,3.79-3.61,6.03c-0.6,2.24-0.4,4.57,0.61,7c1.02,2.46,2.49,4.24,4.42,5.34
			c1.92,1.1,3.95,1.77,6.09,2.01c2.14,0.23,4.81,0.3,8.02,0.2c2.26-0.07,4.09-0.06,5.48,0.03c1.39,0.09,2.61,0.37,3.68,0.84
			c1.06,0.47,1.82,1.24,2.26,2.29c0.7,1.68,0.49,3.15-0.64,4.42c-1.12,1.27-2.62,2.29-4.5,3.07c-2.69,1.12-5.71,1.69-9.05,1.7
			c-3.34,0.01-6.63-0.57-9.86-1.74l3.24,7.79c2.98,1.1,6.03,1.56,9.16,1.38c3.13-0.18,6.22-0.9,9.27-2.17
			c2.77-1.15,5.15-2.63,7.12-4.44c1.97-1.81,3.3-3.88,3.98-6.22c0.68-2.34,0.47-4.82-0.62-7.44
			C405.4,243.83,403.82,241.87,401.78,240.66z"/>
		<path d="M449.16,212.57c-2.82-2.95-6.21-5.01-10.17-6.17c-3.96-1.16-8.09-1.22-12.41-0.18c-4.32,1.04-7.98,2.99-10.99,5.84
			c-3.01,2.86-5.1,6.24-6.27,10.16c-1.17,3.92-1.26,7.93-0.27,12.04c1,4.15,2.9,7.71,5.7,10.67c2.8,2.96,6.19,5.01,10.16,6.17
			c3.97,1.15,8.12,1.21,12.44,0.17c4.24-1.02,7.86-2.95,10.88-5.79c3.01-2.83,5.12-6.24,6.32-10.2c1.2-3.97,1.3-8.02,0.3-12.18
			C453.89,219.04,451.98,215.52,449.16,212.57z M446.06,233.16c-0.65,2.53-1.9,4.72-3.74,6.58c-1.84,1.86-4.09,3.11-6.77,3.75
			c-2.71,0.65-5.31,0.58-7.79-0.21c-2.48-0.79-4.58-2.19-6.33-4.19c-1.74-1.99-2.94-4.35-3.59-7.06c-0.64-2.67-0.64-5.27,0.01-7.8
			c0.65-2.53,1.89-4.71,3.71-6.54c1.82-1.83,4.09-3.07,6.8-3.73c2.71-0.65,5.31-0.56,7.8,0.27c2.49,0.84,4.6,2.24,6.33,4.22
			c1.74,1.98,2.93,4.3,3.57,6.97C446.72,228.05,446.71,230.63,446.06,233.16z"/>
		<path d="M510.77,200.83c-3.69-1.82-7.96-2.73-12.83-2.71l-15.61,0.06l0.17,44.54l15.42-0.06c4.95-0.02,9.28-1,13-2.94
			c3.71-1.94,6.57-4.6,8.57-8c1.99-3.39,2.98-7.25,2.97-11.56c-0.02-4.4-1.05-8.27-3.09-11.6
			C517.32,205.24,514.46,202.66,510.77,200.83z M511.51,227.92c-1.22,2.18-2.98,3.87-5.28,5.07c-2.3,1.19-5.04,1.8-8.21,1.81
			l-6.66,0.03l-0.11-28.81l8.18-0.03c2.79-0.01,5.24,0.64,7.34,1.94c2.1,1.3,3.71,3.04,4.84,5.22c1.13,2.18,1.7,4.57,1.71,7.2
			C513.33,223.21,512.73,225.74,511.51,227.92z"/>
		<polygon points="528.13,243.31 560.76,248.17 561.89,240.58 537.98,237.02 539.64,225.85 561.04,229.03 562.11,221.88 
			540.71,218.69 542.28,208.08 565.69,211.57 566.81,204.04 534.68,199.26 		"/>
		<polygon points="616.39,205.08 608.85,200.12 599.75,208.32 605.61,210.2 		"/>
		<rect x="572.75" y="230.35" transform="matrix(0.3064 -0.9519 0.9519 0.3064 189.2235 729.2725)" width="44.54" height="8.88"/>
		<path d="M637.99,261.73c-2.95,0.91-5.62,1.42-8,1.52c-2.38,0.1-4.77-0.38-7.17-1.44c-2.63-1.17-4.68-2.8-6.15-4.91
			c-1.47-2.11-2.29-4.46-2.46-7.06c-0.17-2.6,0.32-5.19,1.47-7.78c1.13-2.55,2.71-4.63,4.74-6.23c2.03-1.6,4.32-2.57,6.88-2.92
			c2.56-0.34,5.15,0.06,7.78,1.23c4.87,2.16,8.13,5.67,9.78,10.51l3.78-8.53c-2.43-4.22-5.99-7.38-10.66-9.45
			c-4.02-1.79-8.07-2.46-12.15-2.02c-4.08,0.43-7.76,1.86-11.02,4.28c-3.27,2.41-5.77,5.57-7.5,9.48
			c-1.75,3.95-2.41,7.94-1.99,11.99c0.42,4.05,1.82,7.71,4.19,10.98c2.37,3.27,5.49,5.76,9.35,7.48c2.63,1.17,5.19,1.84,7.68,2.02
			c2.49,0.18,5.06-0.07,7.72-0.74L637.99,261.73z"/>
		<path d="M674.13,246.98l-40.42,27.19l7.9,5.08l9.15-6.26l16.12,10.36l-1.95,10.89l8.06,5.18l7.97-48.06L674.13,246.98z
			 M668.41,275.82l-11.42-7.34l14.84-10.52L668.41,275.82z"/>
		<path d="M720.59,301.01c1.84-2.1,2.95-4.37,3.33-6.83c0.38-2.45-0.01-4.96-1.17-7.52c-1.16-2.56-3.05-5-5.69-7.32l-13.12-11.51
			l-29.37,33.48l6.73,5.9l10.71-12.21l4.15,3.64l-2.13,19.74l7.77,6.82l2.02-21.35c3.12,1.5,6.15,2.03,9.07,1.59
			C715.82,305,718.39,303.52,720.59,301.01z M708.35,297.74c-2.01-0.21-4.08-1.25-6.21-3.12l-5.53-4.85l9-10.25l5.92,5.19
			c2.1,1.84,3.35,3.67,3.75,5.49c0.4,1.82-0.15,3.59-1.66,5.3C712.11,297.2,710.35,297.95,708.35,297.74z"/>
		<path d="M757.66,325.73c-0.71-4.06-2.47-7.8-5.31-11.22c-2.84-3.42-6.2-5.85-10.09-7.29c-3.89-1.44-7.85-1.82-11.88-1.15
			c-4.03,0.68-7.67,2.37-10.92,5.07c-3.29,2.73-5.64,6-7.06,9.82c-1.42,3.82-1.77,7.77-1.05,11.84c0.72,4.08,2.5,7.82,5.33,11.24
			c2.78,3.35,6.11,5.76,9.99,7.21c3.87,1.46,7.86,1.85,11.94,1.18c4.09-0.67,7.77-2.37,11.06-5.1c3.22-2.68,5.53-5.93,6.94-9.77
			C758.02,333.74,758.37,329.79,757.66,325.73z M748.41,334.2c-1.01,2.43-2.57,4.52-4.68,6.28c-2.08,1.73-4.4,2.86-6.96,3.39
			c-2.56,0.53-5.08,0.38-7.55-0.45c-2.48-0.83-4.59-2.3-6.35-4.42c-1.78-2.15-2.86-4.51-3.24-7.08c-0.38-2.57-0.05-5.08,0.97-7.52
			c1.02-2.44,2.61-4.56,4.76-6.34c2.11-1.76,4.45-2.9,7.01-3.43c2.56-0.53,5.06-0.38,7.51,0.45c2.44,0.83,4.56,2.31,6.34,4.46
			c1.79,2.15,2.85,4.52,3.19,7.12C749.74,329.25,749.41,331.76,748.41,334.2z"/>
	</g>
	<g>
		<path d="M356.57,647.96c4.63,0.86,9.19,2.1,13.63,3.73C365.63,650.55,361.09,649.33,356.57,647.96z"/>
		<path d="M473.69,632.69c-0.62,5.41-4.31,9.99-9.39,11.95l-0.07,0.03l-15.73,6.09c-8.6,3.33-18,3.13-26.46-0.59l-38.28-16.87
			c-21.54-9.5-45.95-11.39-68.69-5.31l-5.4,1.44c-0.91,0.24-1.87,0.18-2.74-0.17c-0.86-0.35-1.72-0.7-2.58-1.05
			c-51.04-20.88-78.65-70.93-96.95-119.91c-8.57-22.95-13.3-48.09-13.3-74.46c0-25.47,4.41-49.77,12.41-72.07
			c0.09-0.24,0.41-0.24,0.5,0c13.07,35.59,35.96,67.3,66.49,89.16c12.07,8.63,26.41,17.34,40.86,22.98
			c16.54,6.46,33.29,10.57,49.46,17.96c32.46,14.83,62.48,39.18,83.58,68.63c10.95,15.29,18.05,30,23.36,48.22
			C472.88,615.97,474.6,624.68,473.69,632.69z"/>
		<path d="M805.89,433.85c0,26.37-4.72,51.51-13.3,74.46c-18.3,48.97-45.91,99.03-96.95,119.91c-0.38,0.15-0.75,0.31-1.12,0.46
			c-0.87,0.35-1.84,0.42-2.75,0.17l-3.19-0.85c-22.75-6.06-47.16-4.18-68.7,5.31l-38.28,16.87c-8.46,3.72-17.85,3.93-26.46,0.59
			l-15.72-6.09c-1.14-0.44-2.28-0.87-3.43-1.27c-5.58-1.94-9.55-6.98-9.88-12.88c-0.42-7.39,1.18-15.2,3.11-21.8
			c5.33-18.22,12.41-32.94,23.37-48.22c21.09-29.45,51.11-53.8,83.56-68.63c16.17-7.39,32.92-11.49,49.46-17.96
			c14.45-5.64,28.79-14.34,40.86-22.98c30.54-21.85,53.42-53.56,66.49-89.16c0.09-0.24,0.41-0.24,0.5,0
			C801.48,384.08,805.89,408.38,805.89,433.85z"/>
	</g>
	<path d="M700.42,430.15c-34.55-75.12-110.48-127.27-198.6-127.27c-88.1,0-164.03,52.16-198.59,127.27
		c-1.44,3.13-0.32,6.88,2.64,8.64c7.34,4.38,14.37,7.88,20.77,10.32c5.92,2.26,12.04,4.24,18.52,6.32
		c10.17,3.29,20.69,6.68,31.55,11.52c37.14,16.59,70.61,43.46,94.23,75.67c12.81,17.47,21.32,34.62,27.61,55.6l2.12,7.12
		c0.34,1.15,1.98,1.15,2.32,0l2.12-7.11c6.27-21,14.79-38.14,27.59-55.62c23.62-32.21,57.09-59.08,94.25-75.67
		c10.85-4.84,21.37-8.23,31.53-11.52c6.49-2.08,12.62-4.06,18.52-6.32c6.4-2.44,13.43-5.94,20.77-10.32
		C700.74,437.03,701.87,433.29,700.42,430.15z M501.83,492.23c-35.28,0-63.89-28.6-63.89-63.89c0-35.28,28.6-63.89,63.89-63.89
		c35.28,0,63.89,28.6,63.89,63.89C565.72,463.63,537.11,492.23,501.83,492.23z"/>
	<g>
		<g>
			<path d="M762.57,676.22c-2.56,4.2-6.34,10.31-9.36,14.88c-1,1.52-2.85,2.21-4.61,1.75l-72.18-19.23
				c-12.41-3.32-25.72-2.29-37.48,2.89l-38.28,16.87c-10.57,4.66-21.77,6.99-32.96,6.99c-10,0-20.02-1.86-29.63-5.59l-15.72-6.09
				c-13.24-5.14-27.81-5.14-41.05,0l-15.72,6.09c-20.38,7.91-42.6,7.41-62.59-1.4l-38.26-16.87c-11.76-5.18-25.09-6.21-37.49-2.89
				l-72.18,19.23c-1.75,0.47-3.61-0.23-4.61-1.75c-3.02-4.57-6.79-10.68-9.36-14.88c-1.47-2.41-0.2-5.54,2.52-6.27l77.16-20.58
				c17.9-4.78,37.11-3.29,54.07,4.19l38.28,16.85c13.86,6.11,29.28,6.46,43.4,0.97l15.72-6.09c19.09-7.41,40.11-7.41,59.2,0
				l15.72,6.09c14.12,5.49,29.54,5.14,43.4-0.97l38.28-16.85c16.95-7.48,36.17-8.96,54.07-4.19l77.16,20.58
				C762.77,670.68,764.04,673.82,762.57,676.22z"/>
		</g>
		<g>
			<path d="M730.88,720.21c-4.09,4.71-8.32,9.29-12.69,13.74c-1.1,1.13-2.75,1.54-4.26,1.07l-39.57-12.12
				c-11.85-3.63-24.54-2.73-35.75,2.54l-36.95,17.35c-18.87,8.87-40.79,9.44-60.1,1.56l-19.08-7.78
				c-11.67-4.75-24.58-4.93-36.36-0.47l-24.97,9.4c-8.47,3.19-17.43,4.78-26.37,4.78c-10.95,0-21.87-2.38-31.89-7.08l-37.83-17.77
				c-11.2-5.27-23.9-6.17-35.75-2.54l-39.57,12.12c-1.51,0.46-3.16,0.05-4.26-1.07c-4.37-4.45-8.6-9.03-12.69-13.74
				c-2.01-2.32-0.99-5.93,1.94-6.83l47.23-14.47c17.81-5.45,36.9-4.1,53.77,3.82l37.83,17.78c12.1,5.68,26.22,6.24,38.73,1.52
				l24.98-9.4c17.71-6.68,37.13-6.42,54.66,0.72l19.09,7.78c12.84,5.24,27.4,4.85,39.96-1.05l36.95-17.35
				c16.87-7.92,35.96-9.27,53.77-3.82l47.23,14.47C731.87,714.28,732.89,717.89,730.88,720.21z"/>
		</g>
		<g>
			<path d="M688.77,760.25c-5.42,4.24-10.98,8.31-16.68,12.18c-1.09,0.74-2.48,0.93-3.73,0.5l-1.04-0.35
				c-9.12-3.07-18.87-2.39-27.48,1.89l-42.14,20.98c-16.57,8.25-35.72,8.56-52.56,0.87l-28.36-12.97c-9.5-4.34-20.39-4.34-29.9,0
				l-28.36,12.97c-8.1,3.7-16.75,5.55-25.38,5.55c-9.3,0-18.59-2.14-27.18-6.42l-42.14-20.98c-8.6-4.28-18.37-4.96-27.48-1.89
				l-1.04,0.35c-1.25,0.42-2.64,0.24-3.73-0.5c-5.7-3.87-11.27-7.94-16.68-12.18c-2.64-2.07-1.92-6.26,1.27-7.33l12.19-4.1
				c15.46-5.21,32.04-4.07,46.66,3.2L417.13,773c9.77,4.85,21.06,5.05,30.97,0.52l28.36-12.97c16.11-7.36,34.62-7.36,50.73,0
				l28.36,12.97c9.92,4.53,21.2,4.34,30.97-0.52l42.13-20.98c14.62-7.27,31.19-8.41,46.67-3.2l12.17,4.1
				C690.69,753.99,691.41,758.18,688.77,760.25z"/>
		</g>
	</g>
</g>
</svg>
